<svg width="13" height="12" viewBox="0 0 13 12" fill="none" xmlns="http://www.w3.org/2000/svg">
<path d="M4.04108 1.65992C4.26142 1.48415 4.27927 1.18335 4.08098 0.988054C3.88268 0.792762 3.54331 0.776929 3.32298 0.952697L2.07958 1.9446C1.55263 2.36493 1.11551 2.7136 0.815365 3.02985C0.499749 3.36239 0.275391 3.71967 0.275391 4.16071C0.275391 4.60175 0.499749 4.95906 0.815365 5.29156C1.11551 5.60783 1.55262 5.95651 2.07957 6.37681L3.32298 7.36875C3.54331 7.54451 3.88268 7.52866 4.08098 7.33335C4.27927 7.13805 4.26142 6.83726 4.04108 6.66149L2.82703 5.69302C2.2632 5.24323 1.88306 4.93851 1.63681 4.67907C1.40047 4.43004 1.34884 4.28467 1.34884 4.16071C1.34884 4.03675 1.40047 3.89138 1.63681 3.64236C1.88306 3.38291 2.2632 3.07818 2.82703 2.6284L4.04108 1.65992Z" fill="#98A2B3"/>
<path d="M9.00789 4.9019C9.20619 4.70659 9.54555 4.69074 9.76589 4.8665L11.0093 5.85844C11.5362 6.27874 11.9733 6.62742 12.2735 6.94369C12.5891 7.27626 12.8135 7.6335 12.8135 8.07454C12.8135 8.51557 12.5891 8.87288 12.2735 9.20539C11.9733 9.52166 11.5362 9.87034 11.0093 10.2906L9.76589 11.2826C9.54555 11.4583 9.20619 11.4425 9.00789 11.2472C8.80959 11.0519 8.82748 10.7511 9.04782 10.5753L10.2618 9.60685C10.8257 9.15705 11.2058 8.85233 11.4521 8.5929C11.6884 8.34387 11.74 8.19848 11.74 8.07454C11.74 7.95059 11.6884 7.80521 11.4521 7.55618C11.2058 7.29674 10.8257 6.99202 10.2618 6.54223L9.04782 5.57376C8.82748 5.39799 8.80959 5.0972 9.00789 4.9019Z" fill="#98A2B3"/>
<path opacity="0.5" d="M8.10403 0.954801C8.3905 1.02229 8.56097 1.28285 8.48482 1.53677L5.63173 11.0515C5.55559 11.3054 5.26161 11.4565 4.97516 11.389C4.68869 11.3216 4.51817 11.061 4.59431 10.8071L7.44744 1.29237C7.52358 1.03844 7.81749 0.887311 8.10403 0.954801Z" fill="#98A2B3"/>
</svg>
