<svg width="3" height="13" viewBox="0 0 3 13" fill="none" xmlns="http://www.w3.org/2000/svg">
<path d="M1.61638 3.35727C1.87871 3.35727 2.13514 3.27948 2.35326 3.13374C2.57137 2.988 2.74137 2.78086 2.84176 2.5385C2.94215 2.29614 2.96841 2.02946 2.91724 1.77217C2.86606 1.51489 2.73974 1.27856 2.55424 1.09307C2.36875 0.907574 2.13242 0.781253 1.87514 0.730076C1.61785 0.678899 1.35117 0.705165 1.10881 0.805552C0.866455 0.90594 0.659309 1.07594 0.513569 1.29406C0.367828 1.51217 0.29004 1.76861 0.29004 2.03093C0.29004 2.3827 0.429779 2.72006 0.678516 2.9688C0.927253 3.21753 1.26461 3.35727 1.61638 3.35727ZM1.61638 9.98897C1.35405 9.98897 1.09762 10.0668 0.879505 10.2125C0.66139 10.3582 0.491389 10.5654 0.391001 10.8077C0.290614 11.0501 0.264348 11.3168 0.315525 11.5741C0.366702 11.8314 0.493024 12.0677 0.678516 12.2532C0.864008 12.4387 1.10034 12.565 1.35762 12.6162C1.61491 12.6673 1.88159 12.6411 2.12395 12.5407C2.36631 12.4403 2.57345 12.2703 2.71919 12.0522C2.86493 11.8341 2.94272 11.5776 2.94272 11.3153C2.94272 10.9635 2.80298 10.6262 2.55424 10.3774C2.30551 10.1287 1.96815 9.98897 1.61638 9.98897ZM1.61638 5.34678C1.35405 5.34678 1.09762 5.42457 0.879505 5.57031C0.66139 5.71605 0.491389 5.9232 0.391001 6.16555C0.290614 6.40791 0.264348 6.67459 0.315525 6.93188C0.366702 7.18916 0.493024 7.42549 0.678516 7.61099C0.864008 7.79648 1.10034 7.9228 1.35762 7.97398C1.61491 8.02516 1.88159 7.99889 2.12395 7.8985C2.36631 7.79811 2.57345 7.62811 2.71919 7.41C2.86493 7.19188 2.94272 6.93545 2.94272 6.67312C2.94272 6.32135 2.80298 5.984 2.55424 5.73526C2.30551 5.48652 1.96815 5.34678 1.61638 5.34678Z" fill="#98A2B3"/>
</svg>
