<svg width="12" height="16" viewBox="0 0 12 16" fill="none" xmlns="http://www.w3.org/2000/svg">
<path d="M6.00065 6.66671C7.47341 6.66671 8.66732 5.4728 8.66732 4.00004C8.66732 2.52728 7.47341 1.33337 6.00065 1.33337C4.52789 1.33337 3.33398 2.52728 3.33398 4.00004C3.33398 5.4728 4.52789 6.66671 6.00065 6.66671Z" stroke="#272828"/>
<path d="M11.332 12C11.3337 11.8905 11.3337 11.7793 11.3337 11.6666C11.3337 10.0098 8.94586 8.66663 6.00033 8.66663C3.05481 8.66663 0.666992 10.0098 0.666992 11.6666C0.666992 13.3235 0.666992 14.6666 6.00033 14.6666C7.48766 14.6666 8.56019 14.5622 9.33366 14.3756" stroke="#272828" stroke-linecap="round"/>
</svg>
